<svg width="26.000000" height="26.000000" viewBox="0 0 26 26" fill="none" xmlns="http://www.w3.org/2000/svg" xmlns:xlink="http://www.w3.org/1999/xlink">
	<desc>
			Created with Pixso.
	</desc>
	<defs>
		<clipPath id="clip9_5994">
			<rect id="calendar_today_FILL0_wght400_GRAD0_opsz48" width="26.000000" height="26.000000" fill="white"/>
		</clipPath>
	</defs>
	<g clip-path="url(#clip9_5994)">
		<path id="Vector" d="M4.875 23.832C4.44165 23.832 4.0625 23.6699 3.73755 23.3457C3.4126 23.0195 3.25 22.6406 3.25 22.207L3.25 5.41602C3.25 4.98242 3.4126 4.60352 3.73755 4.2793C4.0625 3.95312 4.44165 3.79102 4.875 3.79102L6.6355 3.79102L6.6355 2.16602L8.39575 2.16602L8.39575 3.79102L17.6042 3.79102L17.6042 2.16602L19.3645 2.16602L19.3645 3.79102L21.125 3.79102C21.5583 3.79102 21.9375 3.95312 22.2625 4.2793C22.5874 4.60352 22.75 4.98242 22.75 5.41602L22.75 22.207C22.75 22.6406 22.5874 23.0195 22.2625 23.3457C21.9375 23.6699 21.5583 23.832 21.125 23.832L4.875 23.832ZM4.875 22.207L21.125 22.207L21.125 10.5625L4.875 10.5625L4.875 22.207ZM4.875 8.9375L21.125 8.9375L21.125 5.41602L4.875 5.41602L4.875 8.9375ZM4.875 8.9375L4.875 5.41602L4.875 8.9375Z" fill-rule="nonzero" fill="#FFFFFF"/>
	</g>
</svg>
