<svg width="26.000000" height="26.000000" viewBox="0 0 26 26" fill="none" xmlns="http://www.w3.org/2000/svg" xmlns:xlink="http://www.w3.org/1999/xlink">
	<desc>
			Created with Pixso.
	</desc>
	<defs>
		<clipPath id="clip12_5939">
			<rect id="calendar_today_FILL0_wght400_GRAD0_opsz48" width="26.000000" height="26.000000" fill="white"/>
		</clipPath>
	</defs>
	<g clip-path="url(#clip12_5939)">
		<path id="Vector" d="M4.875 23.834C4.44189 23.834 4.0625 23.6709 3.7373 23.3457C3.4126 23.0215 3.25 22.6416 3.25 22.209L3.25 5.41699C3.25 4.9834 3.4126 4.60449 3.7373 4.2793C4.0625 3.9541 4.44189 3.79199 4.875 3.79199L6.63525 3.79199L6.63525 2.16699L8.396 2.16699L8.396 3.79199L17.604 3.79199L17.604 2.16699L19.3647 2.16699L19.3647 3.79199L21.125 3.79199C21.5581 3.79199 21.9375 3.9541 22.2627 4.2793C22.5874 4.60449 22.75 4.9834 22.75 5.41699L22.75 22.209C22.75 22.6416 22.5874 23.0215 22.2627 23.3457C21.9375 23.6709 21.5581 23.834 21.125 23.834L4.875 23.834ZM4.875 22.209L21.125 22.209L21.125 10.5625L4.875 10.5625L4.875 22.209ZM4.875 8.9375L21.125 8.9375L21.125 5.41699L4.875 5.41699L4.875 8.9375ZM4.875 8.9375L4.875 5.41699L4.875 8.9375Z" fill-rule="nonzero" fill="#777E99"/>
	</g>
</svg>
