<svg width="26.000000" height="26.000000" viewBox="0 0 26 26" fill="none" xmlns="http://www.w3.org/2000/svg" xmlns:xlink="http://www.w3.org/1999/xlink">
	<desc>
			Created with Pixso.
	</desc>
	<defs>
		<clipPath id="clip12_5931">
			<rect id="dataset_FILL0_wght400_GRAD0_opsz48 1" width="26.000000" height="26.000000" fill="white"/>
		</clipPath>
	</defs>
	<g clip-path="url(#clip12_5931)">
		<path id="Vector" d="M7.854 18.1455L11.646 18.1455L11.646 14.3545L7.854 14.3545L7.854 18.1455ZM14.354 18.1455L18.146 18.1455L18.146 14.3545L14.354 14.3545L14.354 18.1455ZM7.854 11.6455L11.646 11.6455L11.646 7.85449L7.854 7.85449L7.854 11.6455ZM14.354 11.6455L18.146 11.6455L18.146 7.85449L14.354 7.85449L14.354 11.6455ZM4.875 22.75C4.44189 22.75 4.0625 22.5879 3.7373 22.2627C3.4126 21.9375 3.25 21.5586 3.25 21.125L3.25 4.875C3.25 4.44141 3.4126 4.0625 3.7373 3.7373C4.0625 3.41211 4.44189 3.25 4.875 3.25L21.125 3.25C21.5581 3.25 21.9375 3.41211 22.2627 3.7373C22.5874 4.0625 22.75 4.44141 22.75 4.875L22.75 21.125C22.75 21.5586 22.5874 21.9375 22.2627 22.2627C21.9375 22.5879 21.5581 22.75 21.125 22.75L4.875 22.75ZM4.875 21.125L21.125 21.125L21.125 4.875L4.875 4.875L4.875 21.125ZM4.875 4.875L4.875 21.125L4.875 4.875Z" fill-rule="nonzero" fill="#777E99"/>
	</g>
</svg>
