<svg width="26.000000" height="26.000000" viewBox="0 0 26 26" fill="none" xmlns="http://www.w3.org/2000/svg" xmlns:xlink="http://www.w3.org/1999/xlink">
	<desc>
			Created with Pixso.
	</desc>
	<defs>
		<clipPath id="clip9_6178">
			<rect id="person_FILL0_wght400_GRAD0_opsz48" width="26.000000" height="26.000000" fill="white"/>
		</clipPath>
	</defs>
	<g clip-path="url(#clip9_6178)">
		<path id="Vector" d="M12.9995 12.9727C11.8081 12.9727 10.833 12.5938 10.0747 11.8359C9.31641 11.0762 8.93701 10.1016 8.93701 8.91016C8.93701 7.71875 9.31641 6.74414 10.0747 5.98438C10.833 5.22656 11.8081 4.84766 12.9995 4.84766C14.1914 4.84766 15.1665 5.22656 15.9248 5.98438C16.6831 6.74414 17.062 7.71875 17.062 8.91016C17.062 10.1016 16.6831 11.0762 15.9248 11.8359C15.1665 12.5938 14.1914 12.9727 12.9995 12.9727ZM4.33301 21.666L4.33301 19.1211C4.33301 18.4336 4.50439 17.8477 4.84766 17.3594C5.19043 16.873 5.63281 16.502 6.1748 16.25C7.38428 15.709 8.54443 15.3027 9.65479 15.0312C10.7651 14.7598 11.8804 14.625 12.9995 14.625C14.1191 14.625 15.2295 14.7656 16.3311 15.0449C17.4321 15.3242 18.5879 15.7266 19.7974 16.25C20.3574 16.502 20.8086 16.873 21.1519 17.3594C21.4946 17.8477 21.6665 18.4336 21.6665 19.1211L21.6665 21.666L4.33301 21.666ZM5.95801 20.041L20.0415 20.041L20.0415 19.1211C20.0415 18.832 19.9556 18.5566 19.7842 18.2949C19.6123 18.0332 19.4004 17.8379 19.1475 17.7129C17.9922 17.1523 16.9355 16.7695 15.979 16.5605C15.022 16.3535 14.0288 16.25 12.9995 16.25C11.9707 16.25 10.9683 16.3535 9.99365 16.5605C9.01855 16.7695 7.9624 17.1523 6.82471 17.7129C6.57178 17.8379 6.36426 18.0332 6.20166 18.2949C6.03906 18.5566 5.95801 18.832 5.95801 19.1211L5.95801 20.041ZM12.9995 11.3477C13.7036 11.3477 14.2861 11.1172 14.7466 10.6562C15.207 10.1973 15.437 9.61523 15.437 8.91016C15.437 8.20508 15.207 7.62305 14.7466 7.16406C14.2861 6.70312 13.7036 6.47266 12.9995 6.47266C12.2954 6.47266 11.7134 6.70312 11.2529 7.16406C10.7925 7.62305 10.562 8.20508 10.562 8.91016C10.562 9.61523 10.7925 10.1973 11.2529 10.6562C11.7134 11.1172 12.2954 11.3477 12.9995 11.3477Z" fill-rule="nonzero" fill="#FFFFFF"/>
	</g>
</svg>
