<svg width="26.000000" height="26.000000" viewBox="0 0 26 26" fill="none" xmlns="http://www.w3.org/2000/svg" xmlns:xlink="http://www.w3.org/1999/xlink">
	<desc>
			Created with Pixso.
	</desc>
	<defs>
		<clipPath id="clip12_5943">
			<rect id="person_FILL0_wght400_GRAD0_opsz48" width="26.000000" height="26.000000" fill="white"/>
		</clipPath>
	</defs>
	<g clip-path="url(#clip12_5943)">
		<path id="Vector" d="M13 12.9727C11.8086 12.9727 10.8335 12.5938 10.0752 11.835C9.31689 11.0771 8.9375 10.1016 8.9375 8.91016C8.9375 7.71875 9.31689 6.74316 10.0752 5.98535C10.8335 5.22656 11.8086 4.84766 13 4.84766C14.1919 4.84766 15.167 5.22656 15.9253 5.98535C16.6836 6.74316 17.0625 7.71875 17.0625 8.91016C17.0625 10.1016 16.6836 11.0771 15.9253 11.835C15.167 12.5938 14.1919 12.9727 13 12.9727ZM4.3335 21.666L4.3335 19.1201C4.3335 18.4346 4.50488 17.8477 4.84814 17.3604C5.19092 16.873 5.6333 16.5029 6.17529 16.25C7.38477 15.708 8.54492 15.3018 9.65527 15.0312C10.7656 14.7598 11.8809 14.625 13 14.625C14.1196 14.625 15.23 14.7646 16.3315 15.0449C17.4326 15.3242 18.5884 15.7266 19.7979 16.25C20.3579 16.5029 20.8091 16.873 21.1523 17.3604C21.4951 17.8477 21.667 18.4346 21.667 19.1201L21.667 21.666L4.3335 21.666ZM5.9585 20.041L20.042 20.041L20.042 19.1201C20.042 18.832 19.9561 18.5566 19.7847 18.2949C19.6128 18.0332 19.4009 17.8389 19.1479 17.7119C17.9927 17.1523 16.936 16.7686 15.9795 16.5615C15.0225 16.3535 14.0293 16.25 13 16.25C11.9712 16.25 10.9688 16.3535 9.99414 16.5615C9.01904 16.7686 7.96289 17.1523 6.8252 17.7119C6.57227 17.8389 6.36475 18.0332 6.20215 18.2949C6.03955 18.5566 5.9585 18.832 5.9585 19.1201L5.9585 20.041ZM13 11.3477C13.7041 11.3477 14.2866 11.1172 14.7471 10.6572C15.2075 10.1963 15.4375 9.61426 15.4375 8.91016C15.4375 8.20605 15.2075 7.62402 14.7471 7.16309C14.2866 6.70312 13.7041 6.47266 13 6.47266C12.2959 6.47266 11.7139 6.70312 11.2534 7.16309C10.793 7.62402 10.5625 8.20605 10.5625 8.91016C10.5625 9.61426 10.793 10.1963 11.2534 10.6572C11.7139 11.1172 12.2959 11.3477 13 11.3477Z" fill-rule="nonzero" fill="#777E99"/>
	</g>
</svg>
