<svg width="26.000000" height="26.000000" viewBox="0 0 26 26" fill="none" xmlns="http://www.w3.org/2000/svg" xmlns:xlink="http://www.w3.org/1999/xlink">
	<desc>
			Created with Pixso.
	</desc>
	<defs>
		<clipPath id="clip12_5935">
			<rect id="task_FILL0_wght400_GRAD0_opsz48" width="26.000000" height="26.000000" fill="white"/>
		</clipPath>
	</defs>
	<g clip-path="url(#clip12_5935)">
		<path id="Vector" d="M11.7539 19.0938L17.9561 12.8916L16.8999 11.8359L11.7539 16.9814L8.96436 14.1924L7.9082 15.248L11.7539 19.0938ZM5.95801 23.834C5.5249 23.834 5.14551 23.6709 4.82031 23.3457C4.49561 23.0215 4.33301 22.6416 4.33301 22.209L4.33301 3.79199C4.33301 3.3584 4.49561 2.97949 4.82031 2.6543C5.14551 2.3291 5.5249 2.16699 5.95801 2.16699L15.7349 2.16699L21.6665 8.09863L21.6665 22.209C21.6665 22.6416 21.5039 23.0215 21.1787 23.3457C20.854 23.6709 20.4746 23.834 20.0415 23.834L5.95801 23.834ZM14.9224 8.8291L14.9224 3.79199L5.95801 3.79199L5.95801 22.209L20.0415 22.209L20.0415 8.8291L14.9224 8.8291ZM5.95801 3.79199L5.95801 8.8291L5.95801 3.79199L5.95801 22.209L5.95801 3.79199Z" fill-rule="nonzero" fill="#FFFFFF"/>
	</g>
</svg>
