<svg width="26.000000" height="26.000000" viewBox="0 0 26 26" fill="none" xmlns="http://www.w3.org/2000/svg" xmlns:xlink="http://www.w3.org/1999/xlink">
	<desc>
			Created with Pixso.
	</desc>
	<defs>
		<clipPath id="clip9_6170">
			<rect id="task_FILL0_wght400_GRAD0_opsz48" width="26.000000" height="26.000000" fill="white"/>
		</clipPath>
	</defs>
	<g clip-path="url(#clip9_6170)">
		<path id="Vector" d="M11.7539 19.0938L17.9561 12.8906L16.8999 11.834L11.7539 16.9805L8.96436 14.1914L7.9082 15.248L11.7539 19.0938ZM5.95801 23.832C5.5249 23.832 5.14551 23.6699 4.82031 23.3457C4.49561 23.0195 4.33301 22.6406 4.33301 22.207L4.33301 3.79102C4.33301 3.35742 4.49561 2.97852 4.82031 2.6543C5.14551 2.32812 5.5249 2.16602 5.95801 2.16602L15.7349 2.16602L21.6665 8.09766L21.6665 22.207C21.6665 22.6406 21.5039 23.0195 21.1787 23.3457C20.854 23.6699 20.4746 23.832 20.0415 23.832L5.95801 23.832ZM14.9224 8.82812L14.9224 3.79102L5.95801 3.79102L5.95801 22.207L20.0415 22.207L20.0415 8.82812L14.9224 8.82812ZM5.95801 3.79102L5.95801 8.82812L5.95801 3.79102L5.95801 22.207L5.95801 3.79102Z" fill-rule="nonzero" fill="#777E99"/>
	</g>
</svg>
